<svg xmlns="http://www.w3.org/2000/svg" xmlns:cc="http://web.resource.org/cc/" xmlns:svg="http://www.w3.org/2000/svg" xmlns:xlink="http://www.w3.org/1999/xlink" id="svg11300" width="48" height="48"><defs id="defs3"><linearGradient id="linearGradient12825"><stop style="stop-color:#fff;stop-opacity:1" id="stop12827" offset="0"/><stop style="stop-color:#fff;stop-opacity:0" id="stop12829" offset="1"/></linearGradient><linearGradient id="linearGradient3345"><stop style="stop-color:#fff;stop-opacity:1" id="stop3347" offset="0"/><stop style="stop-color:#fff;stop-opacity:0" id="stop3349" offset="1"/></linearGradient><linearGradient id="linearGradient15015"><stop style="stop-color:#fff;stop-opacity:1" id="stop15017" offset="0"/><stop id="stop15025" offset=".137" style="stop-color:#d4d6d2;stop-opacity:1"/><stop id="stop15023" offset=".793" style="stop-color:#d4d6d2;stop-opacity:1"/><stop style="stop-color:#7e8478;stop-opacity:1" id="stop15019" offset="1"/></linearGradient><linearGradient id="linearGradient14993"><stop style="stop-color:#000;stop-opacity:1" id="stop14995" offset="0"/><stop style="stop-color:#000;stop-opacity:0" id="stop14997" offset="1"/></linearGradient><linearGradient id="linearGradient14981"><stop style="stop-color:#788600;stop-opacity:1" id="stop14983" offset="0"/><stop style="stop-color:#505900;stop-opacity:1" id="stop14985" offset="1"/></linearGradient><linearGradient id="linearGradient14973"><stop id="stop14975" offset="0" style="stop-color:#747474;stop-opacity:1"/><stop style="stop-color:#b0b0b0;stop-opacity:1" id="stop14977" offset=".621"/><stop id="stop14979" offset="1" style="stop-color:#3f3f3f;stop-opacity:1"/></linearGradient><linearGradient id="linearGradient14881"><stop style="stop-color:#747474;stop-opacity:1" id="stop14883" offset="0"/><stop id="stop14893" offset=".621" style="stop-color:#fff;stop-opacity:1"/><stop style="stop-color:#3f3f3f;stop-opacity:1" id="stop14885" offset="1"/></linearGradient><linearGradient id="linearGradient14861"><stop style="stop-color:#fff;stop-opacity:1" id="stop14863" offset="0"/><stop style="stop-color:#fff;stop-opacity:0" id="stop14865" offset="1"/></linearGradient><linearGradient id="linearGradient14780"><stop style="stop-color:#ebff39;stop-opacity:1" id="stop14782" offset="0"/><stop style="stop-color:#ebff39;stop-opacity:0" id="stop14784" offset="1"/></linearGradient><linearGradient id="linearGradient14867" x1="16.965" x2="18.968" y1="20.166" y2="31.347" gradientTransform="matrix(0.934742,0,0,1.14936,2.518753,-6.859611)" gradientUnits="userSpaceOnUse" xlink:href="#linearGradient14861"/><linearGradient id="linearGradient14887" x1="24" x2="27" y1="19.5" y2="19.5" gradientTransform="translate(1,-3)" gradientUnits="userSpaceOnUse" xlink:href="#linearGradient14881"/><linearGradient id="linearGradient14889" x1="24" x2="27" y1="21.5" y2="21.5" gradientTransform="translate(1,-3)" gradientUnits="userSpaceOnUse" xlink:href="#linearGradient14881"/><linearGradient id="linearGradient14891" x1="24" x2="27" y1="23.5" y2="23.5" gradientTransform="translate(1,-3)" gradientUnits="userSpaceOnUse" xlink:href="#linearGradient14881"/><linearGradient id="linearGradient14895" x1="8" x2="4.328" y1="19.5" y2="19.5" gradientTransform="translate(2,-3)" gradientUnits="userSpaceOnUse" xlink:href="#linearGradient14881"/><linearGradient id="linearGradient14897" x1="8" x2="4.328" y1="19.5" y2="19.5" gradientTransform="translate(2,-3)" gradientUnits="userSpaceOnUse" xlink:href="#linearGradient14881"/><linearGradient id="linearGradient14899" x1="8" x2="4.328" y1="19.5" y2="19.5" gradientTransform="translate(2,-3)" gradientUnits="userSpaceOnUse" xlink:href="#linearGradient14881"/><linearGradient id="linearGradient14903" x1="8" x2="4.328" y1="19.5" y2="19.5" gradientTransform="translate(7,-31)" gradientUnits="userSpaceOnUse" xlink:href="#linearGradient14881"/><linearGradient id="linearGradient14907" x1="8" x2="4.328" y1="19.5" y2="19.5" gradientTransform="translate(7,-33)" gradientUnits="userSpaceOnUse" xlink:href="#linearGradient14881"/><linearGradient id="linearGradient14911" x1="8" x2="4.328" y1="19.5" y2="19.5" gradientTransform="translate(7,-35)" gradientUnits="userSpaceOnUse" xlink:href="#linearGradient14881"/><linearGradient id="linearGradient14915" x1="8" x2="4.328" y1="19.5" y2="19.5" gradientTransform="translate(7,-37)" gradientUnits="userSpaceOnUse" xlink:href="#linearGradient14881"/><linearGradient id="linearGradient14919" x1="8" x2="4.328" y1="19.5" y2="19.5" gradientTransform="translate(7,-39)" gradientUnits="userSpaceOnUse" xlink:href="#linearGradient14881"/><linearGradient id="linearGradient14923" x1="8" x2="4.328" y1="19.5" y2="19.5" gradientTransform="translate(7,-41)" gradientUnits="userSpaceOnUse" xlink:href="#linearGradient14881"/><linearGradient id="linearGradient14927" x1="8" x2="4.328" y1="19.5" y2="19.5" gradientTransform="translate(7,-43)" gradientUnits="userSpaceOnUse" xlink:href="#linearGradient14881"/><linearGradient id="linearGradient14943" x1="7.116" x2="4.713" y1="11.5" y2="11.5" gradientTransform="translate(17,-31)" gradientUnits="userSpaceOnUse" xlink:href="#linearGradient14973"/><linearGradient id="linearGradient14945" x1="7.116" x2="4.713" y1="13.5" y2="13.5" gradientTransform="translate(17,-33)" gradientUnits="userSpaceOnUse" xlink:href="#linearGradient14973"/><linearGradient id="linearGradient14947" x1="7.116" x2="4.713" y1="15.5" y2="15.5" gradientTransform="translate(17,-35)" gradientUnits="userSpaceOnUse" xlink:href="#linearGradient14973"/><linearGradient id="linearGradient14949" x1="7.116" x2="4.713" y1="17.5" y2="17.5" gradientTransform="translate(17,-37)" gradientUnits="userSpaceOnUse" xlink:href="#linearGradient14973"/><linearGradient id="linearGradient14951" x1="7.116" x2="4.713" y1="19.5" y2="19.5" gradientTransform="translate(17,-39)" gradientUnits="userSpaceOnUse" xlink:href="#linearGradient14973"/><linearGradient id="linearGradient14953" x1="7.116" x2="4.713" y1="21.5" y2="21.5" gradientTransform="translate(17,-41)" gradientUnits="userSpaceOnUse" xlink:href="#linearGradient14973"/><linearGradient id="linearGradient14955" x1="7.116" x2="4.713" y1="23.5" y2="23.5" gradientTransform="translate(17,-43)" gradientUnits="userSpaceOnUse" xlink:href="#linearGradient14973"/><linearGradient id="linearGradient14987" x1="20.047" x2="39.003" y1="22.747" y2="49.794" gradientTransform="translate(2,-3)" gradientUnits="userSpaceOnUse" xlink:href="#linearGradient14981"/><radialGradient id="radialGradient14999" cx="21.5" cy="44.75" r="17" fx="21.5" fy="44.75" gradientTransform="matrix(1,0,0,0.220588,0,34.87868)" gradientUnits="userSpaceOnUse" xlink:href="#linearGradient14993"/><linearGradient id="linearGradient15027" x1="43.692" x2="43.683" y1="8.85" y2="18.042" gradientTransform="matrix(1,0,0,0.3953994,-0.8125,14.196128)" gradientUnits="userSpaceOnUse" xlink:href="#linearGradient15015"/><linearGradient id="linearGradient4745" x1="43.692" x2="43.683" y1="8.85" y2="18.042" gradientTransform="matrix(1,0,0,0.3953994,-0.8125,21.146309)" gradientUnits="userSpaceOnUse" xlink:href="#linearGradient15015"/><linearGradient id="linearGradient4748" x1="6.221" x2="6.238" y1="42.891" y2="39.267" gradientTransform="matrix(1.984375,0,0,1,17.10938,-3.013595)" gradientUnits="userSpaceOnUse" xlink:href="#linearGradient14780"/><linearGradient id="linearGradient4751" x1="6.221" x2="6.238" y1="42.891" y2="39.267" gradientTransform="matrix(1.984375,0,0,1,14.10938,-3.013595)" gradientUnits="userSpaceOnUse" xlink:href="#linearGradient14780"/><linearGradient id="linearGradient4754" x1="6.221" x2="6.238" y1="42.891" y2="39.267" gradientTransform="matrix(1.984375,0,0,1,11.109375,-3.013595)" gradientUnits="userSpaceOnUse" xlink:href="#linearGradient14780"/><linearGradient id="linearGradient4757" x1="6.221" x2="6.238" y1="42.891" y2="39.267" gradientTransform="matrix(1.984375,0,0,1,8.09375,-3.013595)" gradientUnits="userSpaceOnUse" xlink:href="#linearGradient14780"/><linearGradient id="linearGradient4760" x1="6.221" x2="6.238" y1="42.891" y2="39.267" gradientTransform="matrix(1.984375,0,0,1,5.09375,-3.013595)" gradientUnits="userSpaceOnUse" xlink:href="#linearGradient14780"/><filter id="filter5416" width="1.225" height="2.02" x="-.112" y="-.51"><feGaussianBlur id="feGaussianBlur5418" stdDeviation="1.593"/></filter><filter id="filter5482" width="1.252" height="3.047" x="-.126" y="-1.024"><feGaussianBlur id="feGaussianBlur5484" stdDeviation="1.173"/></filter><linearGradient id="linearGradient12815" x1="18.489" x2="18.489" y1="8.672" y2="24.706" gradientUnits="userSpaceOnUse" xlink:href="#linearGradient3345"/><linearGradient id="linearGradient12817" x1="18.489" x2="18.489" y1="8.672" y2="24.706" gradientUnits="userSpaceOnUse" xlink:href="#linearGradient3345"/><linearGradient id="linearGradient12819" x1="18.489" x2="18.489" y1="8.672" y2="24.706" gradientUnits="userSpaceOnUse" xlink:href="#linearGradient3345"/><linearGradient id="linearGradient12821" x1="18.489" x2="18.489" y1="8.672" y2="24.706" gradientUnits="userSpaceOnUse" xlink:href="#linearGradient3345"/><radialGradient id="radialGradient12831" cx="31.438" cy="23.969" r="1.125" fx="31.438" fy="23.969" gradientTransform="matrix(2.892397,0,0,0.7230992,-59.49223,7.4807135)" gradientUnits="userSpaceOnUse" xlink:href="#linearGradient12825"/><radialGradient id="radialGradient12835" cx="31.438" cy="23.969" r="1.125" fx="31.438" fy="23.969" gradientTransform="matrix(2.892397,0,0,0.7230992,-59.49223,7.4807135)" gradientUnits="userSpaceOnUse" xlink:href="#linearGradient12825"/></defs><metadata id="metadata4"/><g id="layer1"><rect style="opacity:.4638554;color:#000;fill:#000;fill-opacity:1;fill-rule:nonzero;stroke:none;stroke-width:.1;stroke-linecap:butt;stroke-linejoin:miter;marker:none;marker-start:none;marker-mid:none;marker-end:none;stroke-miterlimit:4;stroke-dasharray:none;stroke-dashoffset:0;stroke-opacity:1;visibility:visible;display:inline;overflow:visible;filter:url(#filter5482);enable-background:accumulate" id="rect5432" width="22.375" height="2.75" x="12.75" y="40.25" rx="1.375" ry="1.375"/><path style="opacity:.28915663;color:#000;fill:url(#radialGradient14999);fill-opacity:1;fill-rule:nonzero;stroke:none;stroke-width:1;stroke-linecap:butt;stroke-linejoin:miter;marker:none;marker-start:none;marker-mid:none;marker-end:none;stroke-miterlimit:4;stroke-dasharray:none;stroke-dashoffset:0;stroke-opacity:1;visibility:visible;display:block;overflow:visible;filter:url(#filter5416)" id="path14991" d="M 38.5,44.75 A 17,3.75 0 1 1 4.5,44.75 A 17,3.75 0 1 1 38.5,44.75 z" transform="matrix(1.352941,0,0,1,-4.838235,-2.75)"/><rect style="opacity:1;color:#000;fill:url(#linearGradient15027);fill-opacity:1;fill-rule:nonzero;stroke:#555753;stroke-width:.99999982;stroke-linecap:round;stroke-linejoin:round;marker:none;marker-start:none;marker-mid:none;marker-end:none;stroke-miterlimit:4;stroke-dasharray:none;stroke-dashoffset:0;stroke-opacity:1;visibility:visible;display:block;overflow:visible" id="rect15011" width="4.736" height="3.968" x="39.844" y="17.55"/><rect id="rect4743" width="4.736" height="3.968" x="39.844" y="24.5" style="opacity:1;color:#000;fill:url(#linearGradient4745);fill-opacity:1;fill-rule:nonzero;stroke:#555753;stroke-width:.99999982;stroke-linecap:round;stroke-linejoin:round;marker:none;marker-start:none;marker-mid:none;marker-end:none;stroke-miterlimit:4;stroke-dasharray:none;stroke-dashoffset:0;stroke-opacity:1;visibility:visible;display:block;overflow:visible"/><path style="opacity:1;color:#000;fill:url(#linearGradient14987);fill-opacity:1;fill-rule:nonzero;stroke:#3a3e00;stroke-width:1.00000012;stroke-linecap:butt;stroke-linejoin:miter;marker:none;marker-start:none;marker-mid:none;marker-end:none;stroke-miterlimit:4;stroke-dasharray:none;stroke-dashoffset:0;stroke-opacity:1;visibility:visible;display:block;overflow:visible" id="rect14772" d="M 3.50103,10.630239 L 3.5049363,37.34988 C 3.5049363,37.428758 3.5937382,37.500087 3.6917178,37.500087 L 14.503317,37.515712 L 14.499411,42.368984 C 14.499411,42.440252 14.521808,42.495319 14.623693,42.495754 L 33.379371,42.487941 C 33.471786,42.484243 33.503652,42.424197 33.503652,42.361171 L 33.507559,37.492274 L 40.389917,37.500087 C 40.483667,37.500087 40.505959,37.369818 40.502479,37.28738 L 40.502479,10.630239 C 40.506385,10.548207 40.456968,10.508247 40.374292,10.50347 L 3.6253115,10.50347 C 3.5468642,10.507811 3.4932175,10.55602 3.50103,10.630239 z"/><path style="opacity:1;color:#000;fill:none;fill-opacity:1;fill-rule:nonzero;stroke:#98a332;stroke-width:1;stroke-linecap:butt;stroke-linejoin:miter;marker:none;marker-start:none;marker-mid:none;marker-end:none;stroke-miterlimit:4;stroke-dasharray:none;stroke-dashoffset:0;stroke-opacity:1;visibility:visible;display:block;overflow:visible" id="path14957" d="M 27,20.472233 L 27.064355,21.003177 L 29.488776,22.895331 L 29.488776,27.499107 L 12.429825,27.499107 L 12.429825,31.432389"/><path style="opacity:1;color:#000;fill:none;fill-opacity:1;fill-rule:nonzero;stroke:#98a332;stroke-width:1;stroke-linecap:butt;stroke-linejoin:miter;marker:none;marker-start:none;marker-mid:none;marker-end:none;stroke-miterlimit:4;stroke-dasharray:none;stroke-dashoffset:0;stroke-opacity:1;visibility:visible;display:block;overflow:visible" id="path14826" d="M 17.504442,39.961011 L 17.559288,34.316033 L 19.460248,31.524667 L 33.46967,31.524667 L 35.513864,29.500178 L 35.558058,26.466544 L 27.514942,20.50521 L 35.625,20.552242 L 35.4375,16.5625 L 28,16.5625"/><g id="g14850" transform="translate(2,-3)"><path id="path14842" d="M 19.5,42.96101 L 19.554846,37.180327 L 21.455804,34.513864" style="opacity:1;color:#000;fill:none;fill-opacity:1;fill-rule:nonzero;stroke:#98a332;stroke-width:1;stroke-linecap:butt;stroke-linejoin:miter;marker:none;marker-start:none;marker-mid:none;marker-end:none;stroke-miterlimit:4;stroke-dasharray:none;stroke-dashoffset:0;stroke-opacity:1;visibility:visible;display:block;overflow:visible"/><path style="opacity:1;color:#000;fill:none;fill-opacity:1;fill-rule:nonzero;stroke:#98a332;stroke-width:1;stroke-linecap:butt;stroke-linejoin:miter;marker:none;marker-start:none;marker-mid:none;marker-end:none;stroke-miterlimit:4;stroke-dasharray:none;stroke-dashoffset:0;stroke-opacity:1;visibility:visible;display:block;overflow:visible" id="path14844" d="M 22.5,42.96101 L 22.554846,37.180327 L 24.455804,34.513864"/><path id="path14846" d="M 25.544196,42.96101 L 25.599042,37.180327 L 27.5,34.513864" style="opacity:1;color:#000;fill:none;fill-opacity:1;fill-rule:nonzero;stroke:#98a332;stroke-width:1;stroke-linecap:butt;stroke-linejoin:miter;marker:none;marker-start:none;marker-mid:none;marker-end:none;stroke-miterlimit:4;stroke-dasharray:none;stroke-dashoffset:0;stroke-opacity:1;visibility:visible;display:block;overflow:visible"/><path style="opacity:1;color:#000;fill:none;fill-opacity:1;fill-rule:nonzero;stroke:#98a332;stroke-width:1;stroke-linecap:butt;stroke-linejoin:miter;marker:none;marker-start:none;marker-mid:none;marker-end:none;stroke-miterlimit:4;stroke-dasharray:none;stroke-dashoffset:0;stroke-opacity:1;visibility:visible;display:block;overflow:visible" id="path14848" d="M 28.5,42.96101 L 28.554846,37.180327 L 30.455804,34.513864"/></g><path id="path14796" d="M 17.992187,36.580155 C 18.791859,36.580155 18.984375,37.209405 18.984375,37.486405 L 18.984375,41.90625 C 18.984375,41.90625 17,41.90625 17,41.90625 L 17,37.486405 C 17,37.209405 17.208141,36.580155 17.992187,36.580155 z" style="color:#000;fill:url(#linearGradient4760);fill-opacity:1;fill-rule:nonzero;stroke:none;stroke-width:1;stroke-linecap:butt;stroke-linejoin:miter;marker:none;marker-start:none;marker-mid:none;marker-end:none;stroke-miterlimit:4;stroke-dashoffset:0;stroke-opacity:1;visibility:visible;display:block;overflow:visible"/><path style="color:#000;fill:url(#linearGradient4757);fill-opacity:1;fill-rule:nonzero;stroke:none;stroke-width:1;stroke-linecap:butt;stroke-linejoin:miter;marker:none;marker-start:none;marker-mid:none;marker-end:none;stroke-miterlimit:4;stroke-dashoffset:0;stroke-opacity:1;visibility:visible;display:block;overflow:visible" id="path14800" d="M 20.992187,36.580155 C 21.791859,36.580155 21.984375,37.209405 21.984375,37.486405 L 21.984375,41.90625 C 21.984375,41.90625 20,41.90625 20,41.90625 L 20,37.486405 C 20,37.209405 20.208141,36.580155 20.992187,36.580155 z"/><path id="path14804" d="M 24.007812,36.580155 C 24.807484,36.580155 25,37.209405 25,37.486405 L 25,41.90625 C 25,41.90625 23.015625,41.90625 23.015625,41.90625 L 23.015625,37.486405 C 23.015625,37.209405 23.223766,36.580155 24.007812,36.580155 z" style="color:#000;fill:url(#linearGradient4754);fill-opacity:1;fill-rule:nonzero;stroke:none;stroke-width:1;stroke-linecap:butt;stroke-linejoin:miter;marker:none;marker-start:none;marker-mid:none;marker-end:none;stroke-miterlimit:4;stroke-dashoffset:0;stroke-opacity:1;visibility:visible;display:block;overflow:visible"/><path style="color:#000;fill:url(#linearGradient4751);fill-opacity:1;fill-rule:nonzero;stroke:none;stroke-width:1;stroke-linecap:butt;stroke-linejoin:miter;marker:none;marker-start:none;marker-mid:none;marker-end:none;stroke-miterlimit:4;stroke-dashoffset:0;stroke-opacity:1;visibility:visible;display:block;overflow:visible" id="path14808" d="M 27.007812,36.580155 C 27.807484,36.580155 28,37.209405 28,37.486405 L 28,41.90625 C 28,41.90625 26.015625,41.90625 26.015625,41.90625 L 26.015625,37.486405 C 26.015625,37.209405 26.223766,36.580155 27.007812,36.580155 z"/><path id="path14812" d="M 30.007812,36.580155 C 30.807484,36.580155 31,37.209405 31,37.486405 L 31,41.90625 C 31,41.90625 29.015625,41.90625 29.015625,41.90625 L 29.015625,37.486405 C 29.015625,37.209405 29.223766,36.580155 30.007812,36.580155 z" style="color:#000;fill:url(#linearGradient4748);fill-opacity:1;fill-rule:nonzero;stroke:none;stroke-width:1;stroke-linecap:butt;stroke-linejoin:miter;marker:none;marker-start:none;marker-mid:none;marker-end:none;stroke-miterlimit:4;stroke-dashoffset:0;stroke-opacity:1;visibility:visible;display:block;overflow:visible"/><path style="opacity:1;color:#000;fill:none;fill-opacity:1;fill-rule:nonzero;stroke:#98a332;stroke-width:1;stroke-linecap:butt;stroke-linejoin:miter;marker:none;marker-start:none;marker-mid:none;marker-end:none;stroke-miterlimit:4;stroke-dasharray:none;stroke-dashoffset:0;stroke-opacity:1;visibility:visible;display:block;overflow:visible" id="path15029" d="M 7.40625,16.3125 L 5.53125,17.5625 L 5.53125,19.4375 L 5.53125,29.5 L 12.53125,29.5625"/><rect style="opacity:1;color:#000;fill:#555753;fill-opacity:1;fill-rule:nonzero;stroke:#2e3436;stroke-width:.99999958;stroke-linecap:butt;stroke-linejoin:miter;marker:none;marker-start:none;marker-mid:none;marker-end:none;stroke-miterlimit:4;stroke-dasharray:none;stroke-dashoffset:0;stroke-opacity:1;visibility:visible;display:block;overflow:visible" id="rect14857" width="16.056" height="7.93" x="9.472" y="14.504" rx=".942" ry=".942"/><rect id="rect14859" width="14.116" height="5.882" x="10.417" y="15.511" rx="0" ry="0" style="opacity:.17045456;color:#000;fill:none;fill-opacity:1;fill-rule:nonzero;stroke:url(#linearGradient14867);stroke-width:.99999976;stroke-linecap:butt;stroke-linejoin:miter;marker:none;marker-start:none;marker-mid:none;marker-end:none;stroke-miterlimit:4;stroke-dasharray:none;stroke-dashoffset:0;stroke-opacity:1;visibility:visible;display:block;overflow:visible"/><rect style="opacity:1;color:#000;fill:url(#linearGradient14899);fill-opacity:1;fill-rule:nonzero;stroke:none;stroke-width:1;stroke-linecap:butt;stroke-linejoin:miter;marker:none;marker-start:none;marker-mid:none;marker-end:none;stroke-miterlimit:4;stroke-dasharray:none;stroke-dashoffset:0;stroke-opacity:1;visibility:visible;display:block;overflow:visible" id="rect14869" width="3" height="1" x="7" y="16"/><path style="opacity:1;color:#000;fill:none;fill-opacity:1;fill-rule:nonzero;stroke:#98a332;stroke-width:1;stroke-linecap:butt;stroke-linejoin:miter;marker:none;marker-start:none;marker-mid:none;marker-end:none;stroke-miterlimit:4;stroke-dasharray:none;stroke-dashoffset:0;stroke-opacity:1;visibility:visible;display:block;overflow:visible" id="path15031" d="M 7.640625,18.5 L 5.515625,19.5625 L 5.515625,22"/><rect id="rect14871" width="3" height="1" x="7" y="18" style="opacity:1;color:#000;fill:url(#linearGradient14897);fill-opacity:1;fill-rule:nonzero;stroke:none;stroke-width:1;stroke-linecap:butt;stroke-linejoin:miter;marker:none;marker-start:none;marker-mid:none;marker-end:none;stroke-miterlimit:4;stroke-dasharray:none;stroke-dashoffset:0;stroke-opacity:1;visibility:visible;display:block;overflow:visible"/><path style="opacity:1;color:#000;fill:none;fill-opacity:1;fill-rule:nonzero;stroke:#98a332;stroke-width:1;stroke-linecap:butt;stroke-linejoin:miter;marker:none;marker-start:none;marker-mid:none;marker-end:none;stroke-miterlimit:4;stroke-dasharray:none;stroke-dashoffset:0;stroke-opacity:1;visibility:visible;display:block;overflow:visible" id="path15033" d="M 7.5,20.5625 L 5.5,22"/><rect style="opacity:1;color:#000;fill:url(#linearGradient14895);fill-opacity:1;fill-rule:nonzero;stroke:none;stroke-width:1;stroke-linecap:butt;stroke-linejoin:miter;marker:none;marker-start:none;marker-mid:none;marker-end:none;stroke-miterlimit:4;stroke-dasharray:none;stroke-dashoffset:0;stroke-opacity:1;visibility:visible;display:block;overflow:visible" id="rect14873" width="3" height="1" x="7" y="20"/><rect id="rect14875" width="3" height="1" x="25" y="16" style="opacity:1;color:#000;fill:url(#linearGradient14887);fill-opacity:1;fill-rule:nonzero;stroke:none;stroke-width:1;stroke-linecap:butt;stroke-linejoin:miter;marker:none;marker-start:none;marker-mid:none;marker-end:none;stroke-miterlimit:4;stroke-dasharray:none;stroke-dashoffset:0;stroke-opacity:1;visibility:visible;display:block;overflow:visible"/><rect style="opacity:1;color:#000;fill:url(#linearGradient14889);fill-opacity:1;fill-rule:nonzero;stroke:none;stroke-width:1;stroke-linecap:butt;stroke-linejoin:miter;marker:none;marker-start:none;marker-mid:none;marker-end:none;stroke-miterlimit:4;stroke-dasharray:none;stroke-dashoffset:0;stroke-opacity:1;visibility:visible;display:block;overflow:visible" id="rect14877" width="3" height="1" x="25" y="18"/><rect id="rect14879" width="3" height="1" x="25" y="20" style="opacity:1;color:#000;fill:url(#linearGradient14891);fill-opacity:1;fill-rule:nonzero;stroke:none;stroke-width:1;stroke-linecap:butt;stroke-linejoin:miter;marker:none;marker-start:none;marker-mid:none;marker-end:none;stroke-miterlimit:4;stroke-dasharray:none;stroke-dashoffset:0;stroke-opacity:1;visibility:visible;display:block;overflow:visible"/><rect id="rect14901" width="3" height="1" x="12" y="-12" transform="matrix(0,1,-1,0,0,0)" style="opacity:1;color:#000;fill:url(#linearGradient14903);fill-opacity:1;fill-rule:nonzero;stroke:none;stroke-width:1;stroke-linecap:butt;stroke-linejoin:miter;marker:none;marker-start:none;marker-mid:none;marker-end:none;stroke-miterlimit:4;stroke-dasharray:none;stroke-dashoffset:0;stroke-opacity:1;visibility:visible;display:block;overflow:visible"/><rect style="opacity:1;color:#000;fill:url(#linearGradient14907);fill-opacity:1;fill-rule:nonzero;stroke:none;stroke-width:1;stroke-linecap:butt;stroke-linejoin:miter;marker:none;marker-start:none;marker-mid:none;marker-end:none;stroke-miterlimit:4;stroke-dasharray:none;stroke-dashoffset:0;stroke-opacity:1;visibility:visible;display:block;overflow:visible" id="rect14905" width="3" height="1" x="12" y="-14" transform="matrix(0,1,-1,0,0,0)"/><rect id="rect14909" width="3" height="1" x="12" y="-16" transform="matrix(0,1,-1,0,0,0)" style="opacity:1;color:#000;fill:url(#linearGradient14911);fill-opacity:1;fill-rule:nonzero;stroke:none;stroke-width:1;stroke-linecap:butt;stroke-linejoin:miter;marker:none;marker-start:none;marker-mid:none;marker-end:none;stroke-miterlimit:4;stroke-dasharray:none;stroke-dashoffset:0;stroke-opacity:1;visibility:visible;display:block;overflow:visible"/><rect style="opacity:1;color:#000;fill:url(#linearGradient14915);fill-opacity:1;fill-rule:nonzero;stroke:none;stroke-width:1;stroke-linecap:butt;stroke-linejoin:miter;marker:none;marker-start:none;marker-mid:none;marker-end:none;stroke-miterlimit:4;stroke-dasharray:none;stroke-dashoffset:0;stroke-opacity:1;visibility:visible;display:block;overflow:visible" id="rect14913" width="3" height="1" x="12" y="-18" transform="matrix(0,1,-1,0,0,0)"/><rect id="rect14917" width="3" height="1" x="12" y="-20" transform="matrix(0,1,-1,0,0,0)" style="opacity:1;color:#000;fill:url(#linearGradient14919);fill-opacity:1;fill-rule:nonzero;stroke:none;stroke-width:1;stroke-linecap:butt;stroke-linejoin:miter;marker:none;marker-start:none;marker-mid:none;marker-end:none;stroke-miterlimit:4;stroke-dasharray:none;stroke-dashoffset:0;stroke-opacity:1;visibility:visible;display:block;overflow:visible"/><rect style="opacity:1;color:#000;fill:url(#linearGradient14923);fill-opacity:1;fill-rule:nonzero;stroke:none;stroke-width:1;stroke-linecap:butt;stroke-linejoin:miter;marker:none;marker-start:none;marker-mid:none;marker-end:none;stroke-miterlimit:4;stroke-dasharray:none;stroke-dashoffset:0;stroke-opacity:1;visibility:visible;display:block;overflow:visible" id="rect14921" width="3" height="1" x="12" y="-22" transform="matrix(0,1,-1,0,0,0)"/><rect id="rect14925" width="3" height="1" x="12" y="-24" transform="matrix(0,1,-1,0,0,0)" style="opacity:1;color:#000;fill:url(#linearGradient14927);fill-opacity:1;fill-rule:nonzero;stroke:none;stroke-width:1;stroke-linecap:butt;stroke-linejoin:miter;marker:none;marker-start:none;marker-mid:none;marker-end:none;stroke-miterlimit:4;stroke-dasharray:none;stroke-dashoffset:0;stroke-opacity:1;visibility:visible;display:block;overflow:visible"/><g id="g14967" transform="translate(2,-3)"><path id="path14959" d="M 9.4575532,27.582292 L 10.518213,30.499107 L 12.462757,30.499107 L 11.402097,27.538097" style="opacity:1;color:#000;fill:none;fill-opacity:1;fill-rule:nonzero;stroke:#98a332;stroke-width:1;stroke-linecap:butt;stroke-linejoin:miter;marker:none;marker-start:none;marker-mid:none;marker-end:none;stroke-miterlimit:4;stroke-dasharray:none;stroke-dashoffset:0;stroke-opacity:1;visibility:visible;display:block;overflow:visible"/><path style="opacity:1;color:#000;fill:none;fill-opacity:1;fill-rule:nonzero;stroke:#98a332;stroke-width:1;stroke-linecap:butt;stroke-linejoin:miter;marker:none;marker-start:none;marker-mid:none;marker-end:none;stroke-miterlimit:4;stroke-dasharray:none;stroke-dashoffset:0;stroke-opacity:1;visibility:visible;display:block;overflow:visible" id="path14961" d="M 13.457553,27.582292 L 14.518213,30.499107 L 16.462757,30.499107 L 15.402097,27.538097"/><path id="path14963" d="M 17.457553,27.582292 L 18.518213,30.499107 L 20.462757,30.499107 L 19.402097,27.538097" style="opacity:1;color:#000;fill:none;fill-opacity:1;fill-rule:nonzero;stroke:#98a332;stroke-width:1;stroke-linecap:butt;stroke-linejoin:miter;marker:none;marker-start:none;marker-mid:none;marker-end:none;stroke-miterlimit:4;stroke-dasharray:none;stroke-dashoffset:0;stroke-opacity:1;visibility:visible;display:block;overflow:visible"/><path style="opacity:1;color:#000;fill:none;fill-opacity:1;fill-rule:nonzero;stroke:#98a332;stroke-width:1;stroke-linecap:butt;stroke-linejoin:miter;marker:none;marker-start:none;marker-mid:none;marker-end:none;stroke-miterlimit:4;stroke-dasharray:none;stroke-dashoffset:0;stroke-opacity:1;visibility:visible;display:block;overflow:visible" id="path14965" d="M 21.457553,27.582292 L 22.518213,30.499107"/></g><rect style="opacity:1;color:#000;fill:url(#linearGradient14943);fill-opacity:1;fill-rule:nonzero;stroke:none;stroke-width:1;stroke-linecap:butt;stroke-linejoin:miter;marker:none;marker-start:none;marker-mid:none;marker-end:none;stroke-miterlimit:4;stroke-dasharray:none;stroke-dashoffset:0;stroke-opacity:1;visibility:visible;display:block;overflow:visible" id="rect14929" width="3" height="1" x="22" y="-12" transform="matrix(0,1,-1,0,0,0)"/><rect id="rect14931" width="3" height="1" x="22" y="-14" transform="matrix(0,1,-1,0,0,0)" style="opacity:1;color:#000;fill:url(#linearGradient14945);fill-opacity:1;fill-rule:nonzero;stroke:none;stroke-width:1;stroke-linecap:butt;stroke-linejoin:miter;marker:none;marker-start:none;marker-mid:none;marker-end:none;stroke-miterlimit:4;stroke-dasharray:none;stroke-dashoffset:0;stroke-opacity:1;visibility:visible;display:block;overflow:visible"/><rect style="opacity:1;color:#000;fill:url(#linearGradient14947);fill-opacity:1;fill-rule:nonzero;stroke:none;stroke-width:1;stroke-linecap:butt;stroke-linejoin:miter;marker:none;marker-start:none;marker-mid:none;marker-end:none;stroke-miterlimit:4;stroke-dasharray:none;stroke-dashoffset:0;stroke-opacity:1;visibility:visible;display:block;overflow:visible" id="rect14933" width="3" height="1" x="22" y="-16" transform="matrix(0,1,-1,0,0,0)"/><rect id="rect14935" width="3" height="1" x="22" y="-18" transform="matrix(0,1,-1,0,0,0)" style="opacity:1;color:#000;fill:url(#linearGradient14949);fill-opacity:1;fill-rule:nonzero;stroke:none;stroke-width:1;stroke-linecap:butt;stroke-linejoin:miter;marker:none;marker-start:none;marker-mid:none;marker-end:none;stroke-miterlimit:4;stroke-dasharray:none;stroke-dashoffset:0;stroke-opacity:1;visibility:visible;display:block;overflow:visible"/><rect style="opacity:1;color:#000;fill:url(#linearGradient14951);fill-opacity:1;fill-rule:nonzero;stroke:none;stroke-width:1;stroke-linecap:butt;stroke-linejoin:miter;marker:none;marker-start:none;marker-mid:none;marker-end:none;stroke-miterlimit:4;stroke-dasharray:none;stroke-dashoffset:0;stroke-opacity:1;visibility:visible;display:block;overflow:visible" id="rect14937" width="3" height="1" x="22" y="-20" transform="matrix(0,1,-1,0,0,0)"/><rect id="rect14939" width="3" height="1" x="22" y="-22" transform="matrix(0,1,-1,0,0,0)" style="opacity:1;color:#000;fill:url(#linearGradient14953);fill-opacity:1;fill-rule:nonzero;stroke:none;stroke-width:1;stroke-linecap:butt;stroke-linejoin:miter;marker:none;marker-start:none;marker-mid:none;marker-end:none;stroke-miterlimit:4;stroke-dasharray:none;stroke-dashoffset:0;stroke-opacity:1;visibility:visible;display:block;overflow:visible"/><path id="path14989" d="M 4.5012312,36.501619 L 15.499344,36.501563 L 15.510393,41.484683 L 32.511389,41.482271 L 32.508534,36.494975 L 39.49833,36.497656 C 39.502302,36.497247 39.502062,11.503547 39.502062,11.503547 L 4.5047333,11.501369 C 4.5087743,19.839994 4.5012312,36.501619 4.5012312,36.501619 z" style="opacity:.23863633;color:#000;fill:none;fill-opacity:1;fill-rule:nonzero;stroke:#fff;stroke-width:1.0000006;stroke-linecap:butt;stroke-linejoin:miter;marker:none;marker-start:none;marker-mid:none;marker-end:none;stroke-miterlimit:4;stroke-dasharray:none;stroke-dashoffset:0;stroke-opacity:1;visibility:visible;display:block;overflow:visible"/><rect style="opacity:1;color:#000;fill:url(#linearGradient14955);fill-opacity:1;fill-rule:nonzero;stroke:none;stroke-width:1;stroke-linecap:butt;stroke-linejoin:miter;marker:none;marker-start:none;marker-mid:none;marker-end:none;stroke-miterlimit:4;stroke-dasharray:none;stroke-dashoffset:0;stroke-opacity:1;visibility:visible;display:block;overflow:visible" id="rect14941" width="3" height="1" x="22" y="-24" transform="matrix(0,1,-1,0,0,0)"/><path style="opacity:1;color:#000;fill:none;fill-opacity:1;fill-rule:nonzero;stroke:#555753;stroke-width:3;stroke-linecap:round;stroke-linejoin:round;marker:none;marker-start:none;marker-mid:none;marker-end:none;stroke-miterlimit:4;stroke-dasharray:none;stroke-dashoffset:0;stroke-opacity:1;visibility:visible;display:block;overflow:visible" id="path15001" d="M 41.5,44 L 41.5,5.5 L 47,5.5"/><path id="path15003" d="M 41.5,44 L 41.5,5.5 L 47,5.5" style="opacity:1;color:#000;fill:none;fill-opacity:1;fill-rule:nonzero;stroke:#d4d6d2;stroke-width:1;stroke-linecap:round;stroke-linejoin:round;marker:none;marker-start:none;marker-mid:none;marker-end:none;stroke-miterlimit:4;stroke-dasharray:none;stroke-dashoffset:0;stroke-opacity:1;visibility:visible;display:block;overflow:visible"/><path style="opacity:1;color:#000;fill:#3465a4;fill-opacity:1;fill-rule:nonzero;stroke:#204a87;stroke-width:.62467533;stroke-linecap:round;stroke-linejoin:round;marker:none;marker-start:none;marker-mid:none;marker-end:none;stroke-miterlimit:4;stroke-dasharray:none;stroke-dashoffset:0;stroke-opacity:1;visibility:visible;display:block;overflow:visible" id="path15005" d="M 36.946331,12.998215 A 0.92807764,0.92807764 0 1 1 35.090176,12.998215 A 0.92807764,0.92807764 0 1 1 36.946331,12.998215 z" transform="matrix(1.600832,0,0,1.600832,-21.65917,-4.807952)"/><path id="path15007" d="M 36.946331,12.998215 A 0.92807764,0.92807764 0 1 1 35.090176,12.998215 A 0.92807764,0.92807764 0 1 1 36.946331,12.998215 z" transform="matrix(1.600832,0,0,1.600832,-21.65917,0.177738)" style="opacity:1;color:#000;fill:#3465a4;fill-opacity:1;fill-rule:nonzero;stroke:#204a87;stroke-width:.62467533;stroke-linecap:round;stroke-linejoin:round;marker:none;marker-start:none;marker-mid:none;marker-end:none;stroke-miterlimit:4;stroke-dasharray:none;stroke-dashoffset:0;stroke-opacity:1;visibility:visible;display:block;overflow:visible"/><path style="opacity:1;color:#000;fill:#3465a4;fill-opacity:1;fill-rule:nonzero;stroke:#204a87;stroke-width:.62467533;stroke-linecap:round;stroke-linejoin:round;marker:none;marker-start:none;marker-mid:none;marker-end:none;stroke-miterlimit:4;stroke-dasharray:none;stroke-dashoffset:0;stroke-opacity:1;visibility:visible;display:block;overflow:visible" id="path15009" d="M 36.946331,12.998215 A 0.92807764,0.92807764 0 1 1 35.090176,12.998215 A 0.92807764,0.92807764 0 1 1 36.946331,12.998215 z" transform="matrix(1.600832,0,0,1.600832,-21.65917,5.206345)"/><g id="g12800" transform="translate(9,6.25e-2)"><path id="path12759" d="M 17,9.9375 L 17,15.96875 C 16.493129,15.96223 15.98964,16 15.5,16 C 14.080263,16 12.875744,16.202318 11.875,16.71875 C 10.874256,17.235182 10,18.276432 10,19.5 C 10,20.723568 10.874256,21.764817 11.875,22.28125 C 12.875744,22.797683 14.080262,23.000001 15.5,23 C 16.928124,23 18.300859,22.76744 19.46875,22.3125 C 20.052695,22.08503 20.590258,21.800711 21.0625,21.375 C 21.534742,20.949289 22,20.295127 22,19.46875 L 22,11.84375 L 25,13.8125 L 25,22.25 C 24.494962,22.18705 24.051059,22 23.5,22 C 22.080262,22 20.875744,22.202318 19.875,22.71875 C 18.874256,23.235182 18,24.276432 18,25.5 C 18,26.723568 18.874256,27.764818 19.875,28.28125 C 20.875744,28.797682 22.080262,29.000001 23.5,29 C 24.900383,29 26.271477,28.817188 27.4375,28.40625 C 28.020511,28.200781 28.546348,27.945214 29.03125,27.53125 C 29.516152,27.117286 30,26.420127 30,25.59375 L 30,9.9375 L 26.5,9.9375 L 27,10.28125 L 27,11.53125 L 24.5625,9.9375 L 17,9.9375 z M 15.5,19 C 16.805136,19.000001 17.55098,18.979678 17.875,19.125 C 18.227634,19.291219 18.631124,19.313635 19,19.1875 C 18.904924,19.262544 18.726453,19.406518 18.40625,19.53125 C 17.700719,19.806082 16.578188,20 15.5,20 C 14.413425,20 13.622678,19.78607 13.25,19.59375 C 13.134847,19.534325 13.132548,19.52137 13.09375,19.5 C 13.132548,19.47863 13.134847,19.465675 13.25,19.40625 C 13.622678,19.21393 14.413424,19 15.5,19 z M 23.5,25 C 24.614561,25.000001 25.334076,25.132397 25.875,25.375 C 26.091132,25.470203 26.326689,25.513031 26.5625,25.5 C 26.503296,25.524897 26.505494,25.538537 26.4375,25.5625 C 25.730101,25.811807 24.60593,26 23.5,26 C 22.413425,26 21.622677,25.78607 21.25,25.59375 C 21.134847,25.534325 21.132548,25.52137 21.09375,25.5 C 21.132548,25.47863 21.134847,25.465675 21.25,25.40625 C 21.622678,25.21393 22.413425,25 23.5,25 z" style="opacity:.57831325;color:#000;fill:#fff;fill-opacity:1;fill-rule:nonzero;stroke:none;stroke-width:3;stroke-linecap:round;stroke-linejoin:round;marker:none;stroke-miterlimit:4;stroke-dasharray:none;stroke-dashoffset:0;stroke-opacity:1;visibility:visible;display:inline;overflow:visible"/><g id="g12791"><path id="path7246" d="M 18.5,2.5 L 18.5,17.766776 C 17.683206,17.400445 16.723784,17.500001 15.5,17.5 C 12.993687,17.5 11.5,18.335008 11.5,19.5 C 11.5,20.664992 12.993687,21.500001 15.5,21.5 C 18.006312,21.5 20.5,20.622952 20.5,19.457958 L 20.5,9.0625 L 26.5,13 L 26.5,24 C 25.683205,23.633669 24.723785,23.500001 23.5,23.5 C 20.993687,23.5 19.5,24.335009 19.5,25.5 C 19.5,26.664993 20.993687,27.500001 23.5,27.5 C 26.006313,27.5 28.5,26.762007 28.5,25.597013 L 28.5,9.499095 L 18.5,2.5 z" style="color:#000;fill:#5f8fcd;fill-opacity:1;fill-rule:nonzero;stroke:#204a87;stroke-width:1;stroke-linecap:round;stroke-linejoin:round;marker:none;marker-start:none;marker-mid:none;marker-end:none;stroke-miterlimit:4;stroke-dashoffset:0;stroke-opacity:1;visibility:visible;display:inline;overflow:visible"/><g id="g7250" transform="matrix(0.6061903,0,0,0.6999095,2.887352,-0.6495928)" style="opacity:.55"><path id="path7252" d="M 27.486296,7.1342692 L 27.612959,12.035784 L 27.612959,13.553676 C 27.525,12.624843 29.555206,12.239904 30.154449,12.535784 L 40.0625,18.553473 C 40.314911,18.723828 40.475956,19.223147 40.5,19.526716 L 40.492233,15.215671 L 27.486296,7.1342692 z" style="opacity:1;color:#000;fill:none;fill-opacity:1;fill-rule:nonzero;stroke:#fff;stroke-width:1.53523385999999995;stroke-linecap:round;stroke-linejoin:miter;marker:none;marker-start:none;marker-mid:none;marker-end:none;stroke-miterlimit:4;stroke-dashoffset:0;stroke-opacity:1;visibility:visible;display:inline;overflow:visible"/><g style="opacity:1;fill-opacity:1;stroke:url(#linearGradient12817);stroke-width:1.53523386" id="g7254" transform="translate(9,3)"><path id="path7256" d="M 18.5,25.5 L 18.5,4.5" style="opacity:1;fill:none;fill-opacity:1;fill-rule:evenodd;stroke:url(#linearGradient12815);stroke-width:1.53523386;stroke-linecap:round;stroke-linejoin:round;stroke-miterlimit:4;stroke-dasharray:none;stroke-opacity:.973384;display:inline"/></g><g style="opacity:1;fill-opacity:1;stroke:url(#linearGradient12821);stroke-width:1.53523386" id="g7258" transform="translate(22,13)"><path id="path7260" d="M 18.5,25.5 L 18.5,2.5" style="opacity:1;fill:none;fill-opacity:1;fill-rule:evenodd;stroke:url(#linearGradient12819);stroke-width:1.53523386;stroke-linecap:round;stroke-linejoin:round;stroke-miterlimit:4;stroke-dasharray:none;stroke-opacity:.973384;display:inline"/></g></g></g></g><path style="opacity:1;color:#000;fill:url(#radialGradient12831);fill-opacity:1;fill-rule:nonzero;stroke:none;stroke-width:3;stroke-linecap:butt;stroke-linejoin:miter;marker:none;marker-start:none;marker-mid:none;marker-end:none;stroke-miterlimit:4;stroke-dasharray:none;stroke-dashoffset:0;stroke-opacity:1;visibility:visible;display:inline;overflow:visible;enable-background:accumulate" id="path12823" d="M 32.5625,25.09375 A 1.125,0.28125 0 1 1 30.3125,25.09375 A 1.125,0.28125 0 1 1 32.5625,25.09375 z" transform="matrix(2.0555556,0,0,2.7777778,-32.434028,-44.736111)"/><path id="path12833" d="M 32.5625,25.09375 A 1.125,0.28125 0 1 1 30.3125,25.09375 A 1.125,0.28125 0 1 1 32.5625,25.09375 z" transform="matrix(2.0555556,0,0,2.7777778,-40.309028,-50.736111)" style="opacity:1;color:#000;fill:url(#radialGradient12835);fill-opacity:1;fill-rule:nonzero;stroke:none;stroke-width:3;stroke-linecap:butt;stroke-linejoin:miter;marker:none;marker-start:none;marker-mid:none;marker-end:none;stroke-miterlimit:4;stroke-dasharray:none;stroke-dashoffset:0;stroke-opacity:1;visibility:visible;display:inline;overflow:visible;enable-background:accumulate"/></g></svg>