<svg xmlns="http://www.w3.org/2000/svg" xmlns:cc="http://web.resource.org/cc/" xmlns:svg="http://www.w3.org/2000/svg" xmlns:xlink="http://www.w3.org/1999/xlink" id="svg7854" width="48" height="48" version="1.0"><defs id="defs7856"><linearGradient id="linearGradient7577"><stop style="stop-color:#000;stop-opacity:.3137255" id="stop7579" offset="0"/><stop style="stop-color:#fff;stop-opacity:1" id="stop7581" offset="1"/></linearGradient><linearGradient id="linearGradient7305"><stop style="stop-color:#fff;stop-opacity:1" id="stop7307" offset="0"/><stop id="stop7313" offset=".21" style="stop-color:#fff;stop-opacity:0"/><stop style="stop-color:#fff;stop-opacity:.81065089" id="stop7329" offset=".349"/><stop id="stop7321" offset=".429" style="stop-color:#fff;stop-opacity:0"/><stop style="stop-color:#fff;stop-opacity:1" id="stop7323" offset=".521"/><stop id="stop7317" offset=".557" style="stop-color:#fff;stop-opacity:0"/><stop style="stop-color:#fff;stop-opacity:.56804734" id="stop7319" offset=".71"/><stop id="stop7416" offset=".744" style="stop-color:#fff;stop-opacity:0"/><stop style="stop-color:#fff;stop-opacity:0" id="stop7309" offset="1"/></linearGradient><linearGradient id="linearGradient7344"><stop id="stop7346" offset="0" style="stop-color:#eeeeec;stop-opacity:1"/><stop id="stop7348" offset="1" style="stop-color:#92948f;stop-opacity:1"/></linearGradient><linearGradient id="linearGradient7865" x1="-177.278" x2="-172.829" y1="9.204" y2="25.808" gradientUnits="userSpaceOnUse" xlink:href="#linearGradient7577"/><radialGradient id="radialGradient7867" cx="36.126" cy="18.02" r="13.552" fx="36.126" fy="18.02" gradientTransform="matrix(2.7391664,0,0,2.2478596,-274.85735,-10.683483)" gradientUnits="userSpaceOnUse" xlink:href="#linearGradient7344"/><linearGradient id="linearGradient7869" x1="-.117" x2="48.026" y1="10.147" y2="37.942" gradientUnits="userSpaceOnUse" xlink:href="#linearGradient7305"/></defs><metadata id="metadata7859"/><g id="layer1"><g id="g7138" transform="translate(200,0)"><path id="path7671" d="M -186.59375,9 C -187.38473,9.0508993 -188.00018,9.7073844 -188,10.5 L -188,37.5 C -187.99205,38.031998 -187.70339,38.520136 -187.24104,38.783419 C -186.77869,39.046702 -186.21158,39.045877 -185.75,38.78125 L -162.75,25.28125 C -162.30425,25.008049 -162.03253,24.522812 -162.03253,24 C -162.03253,23.477188 -162.30425,22.991951 -162.75,22.71875 L -185.75,9.21875 C -186.00346,9.0640763 -186.29707,8.9879569 -186.59375,9 L -186.59375,9 z" style="opacity:.4;fill:url(#linearGradient7865);fill-opacity:1;fill-rule:evenodd;stroke:none;stroke-width:.99999982;stroke-linecap:square;stroke-linejoin:miter;stroke-miterlimit:4;stroke-dashoffset:.69999992;stroke-opacity:1"/><g id="g7515"><path id="path7812" d="M -186.5,37.500001 L -186.5,10.500456 L -163.5,24.012458 L -186.5,37.500001 z" style="fill:url(#radialGradient7867);fill-opacity:1;fill-rule:evenodd;stroke:#555753;stroke-width:.99999982;stroke-linecap:square;stroke-linejoin:miter;stroke-miterlimit:4;stroke-dashoffset:.69999992;stroke-opacity:1"/><path id="path7828" d="M -185.5,35.750028 L -185.5,12.250428 L -165.5,24.010872 L -185.5,35.750028 z" style="fill:none;fill-opacity:1;fill-rule:evenodd;stroke:#fff;stroke-width:.99999982;stroke-linecap:square;stroke-linejoin:miter;stroke-miterlimit:4;stroke-dashoffset:.69999992;stroke-opacity:1"/><path style="opacity:.15;fill:url(#linearGradient7869);fill-opacity:1;fill-rule:evenodd;stroke:none;stroke-width:.99999982;stroke-linecap:square;stroke-linejoin:miter;stroke-miterlimit:4;stroke-dashoffset:.69999992;stroke-opacity:1" id="path7354" d="M 14,11.375 C 14,19.791551 14,28.208449 14,36.625 C 21.167154,32.421341 28.332238,28.204015 35.5,24 C 28.332835,19.790152 21.16775,15.585191 14,11.375 z" transform="matrix(1,0,0,-1,-200,48)"/></g></g></g></svg>